<svg width="150" height="29" viewBox="0 0 150 29" fill="none" xmlns="http://www.w3.org/2000/svg">
<path d="M48.4159 1.74H57.3513C59.4578 1.74 61.0772 1.89921 62.2098 2.21765C63.3649 2.51333 64.1803 3.00235 64.656 3.68471C65.1316 4.34432 65.3695 5.27686 65.3695 6.48236V9.21177C65.3695 9.82588 65.1202 10.4059 64.622 10.9518C64.1464 11.4976 63.58 11.8729 62.9233 12.0777V12.2482C63.7838 12.3392 64.5653 12.7145 65.2675 13.3741C65.9922 14.011 66.3547 14.7274 66.3547 15.5235V18.9353C66.3547 20.7321 65.6413 22.0059 64.2143 22.7565C62.7874 23.5071 60.579 23.8824 57.5892 23.8824H48.4159V1.74ZM57.3513 10.7471C58.1893 10.7471 58.8123 10.6788 59.22 10.5424C59.6277 10.4059 59.8995 10.1898 60.0354 9.89412C60.1939 9.57568 60.2732 9.12079 60.2732 8.52941V7.43765C60.2732 6.91451 60.2052 6.52785 60.0693 6.27765C59.9334 6.00471 59.6503 5.81138 59.22 5.69765C58.8123 5.58392 58.1554 5.52706 57.2494 5.52706H53.716V10.7471H57.3513ZM57.4872 20.0953C58.7783 20.0953 59.6956 19.9474 60.2392 19.6518C60.7828 19.3561 61.0546 18.8785 61.0546 18.2188V16.4447C61.0546 15.6259 60.8394 15.0459 60.4091 14.7047C60.0014 14.3635 59.2652 14.1929 58.2007 14.1929H53.716V20.0953H57.4872ZM69.9141 1.39882H74.8745V5.42471H69.9141V1.39882ZM69.9141 7.36941H74.8745V23.8824H69.9141V7.36941ZM79.3668 7.36941H84.2593V9.38236C84.6444 7.81294 86.3997 7.02824 89.5254 7.02824C91.6318 7.02824 93.1042 7.41491 93.9422 8.18824C94.8029 8.93883 95.2332 10.1329 95.2332 11.7706V23.8824H90.2729V12.4188C90.2729 11.782 90.2049 11.3043 90.069 10.9859C89.9559 10.6674 89.7067 10.44 89.3216 10.3035C88.9592 10.1671 88.393 10.0988 87.6228 10.0988C86.6489 10.0988 85.9354 10.1671 85.4824 10.3035C85.0295 10.4173 84.7237 10.6333 84.565 10.9518C84.4065 11.2702 84.3272 11.7592 84.3272 12.4188V23.8824H79.3668V7.36941ZM105.892 24.2235C103.944 24.2235 102.506 24.0871 101.577 23.8141C100.649 23.5185 100.003 22.9726 99.6408 22.1765C99.2783 21.3803 99.0972 20.1408 99.0972 18.4576V12.0094C99.0972 10.1898 99.6068 8.90471 100.626 8.15412C101.668 7.40353 103.344 7.02824 105.654 7.02824C106.742 7.02824 107.591 7.09647 108.203 7.23294C108.837 7.34667 109.346 7.56274 109.731 7.88118C110.116 8.17686 110.513 8.62039 110.921 9.21177V0H115.881V23.8824H111.09V22.0059C110.683 22.6656 110.309 23.1318 109.969 23.4047C109.652 23.655 109.199 23.8482 108.61 23.9847C107.999 24.1439 107.093 24.2235 105.892 24.2235ZM107.149 21.1188C108.259 21.1188 109.074 21.062 109.595 20.9482C110.116 20.8345 110.467 20.6297 110.649 20.3341C110.83 20.0156 110.921 19.5494 110.921 18.9353V12.2824C110.921 11.7137 110.819 11.2816 110.615 10.9859C110.433 10.6674 110.094 10.44 109.595 10.3035C109.12 10.1671 108.395 10.0988 107.421 10.0988C106.379 10.0988 105.632 10.1671 105.179 10.3035C104.726 10.4173 104.42 10.6333 104.261 10.9518C104.126 11.2474 104.058 11.7479 104.058 12.4529V18.7647C104.058 19.4015 104.126 19.8906 104.261 20.2318C104.42 20.5503 104.714 20.7777 105.145 20.9141C105.575 21.0506 106.243 21.1188 107.149 21.1188ZM128.499 24.2235C122.678 24.2235 119.767 22.438 119.767 18.8671V12.9306C119.767 10.8608 120.424 9.35962 121.738 8.42706C123.074 7.49451 125.124 7.02824 127.888 7.02824C130.492 7.02824 132.395 7.48315 133.595 8.39294C134.818 9.28 135.43 10.7926 135.43 12.9306V16.9565H124.762V18.4576C124.762 19.4129 125.102 20.0953 125.781 20.5047C126.461 20.9141 127.684 21.1188 129.45 21.1188C131.081 21.1188 132.916 20.88 134.954 20.4024V23.5753C132.939 24.0074 130.787 24.2235 128.499 24.2235ZM130.707 14.1247V11.7365C130.707 11.1906 130.481 10.7812 130.028 10.5082C129.598 10.2353 128.862 10.0988 127.82 10.0988C126.619 10.0988 125.815 10.2353 125.407 10.5082C124.977 10.8039 124.762 11.2133 124.762 11.7365V14.1247H130.707ZM139.221 7.36941H143.944V10.2694C143.944 9.74627 144.159 9.23451 144.589 8.73412C145.02 8.23373 145.563 7.82432 146.22 7.50588C146.9 7.18745 147.568 7.02824 148.225 7.02824H149.992V11.1565H148.293C146.888 11.1565 145.847 11.3726 145.167 11.8047C144.51 12.2369 144.182 12.9533 144.182 13.9541V23.8824H139.221V7.36941Z" fill="white"/>
<path d="M15.397 14.4199C14.8219 14.4421 14.2745 14.4588 13.7547 14.4699C13.2459 14.481 12.7483 14.4921 12.2616 14.5032C11.775 14.5032 11.2939 14.5032 10.8184 14.5032C10.3428 14.5032 9.86171 14.5032 9.37508 14.5032C9.08753 15.0696 8.76127 15.7304 8.39631 16.4856C8.04239 17.2298 7.66637 18.0126 7.26824 18.8345C6.88114 19.6564 6.48853 20.4894 6.09039 21.3335C5.70329 22.1663 5.3328 22.9604 4.97889 23.7156C4.62499 24.4597 4.30425 25.1316 4.0167 25.7314C3.72916 26.3423 3.4969 26.8254 3.31996 27.1807C3.19829 27.4361 3.04899 27.6694 2.87203 27.8805C2.69509 28.1026 2.50155 28.2912 2.29141 28.4468C2.08128 28.6022 1.86562 28.7189 1.64443 28.7967C1.42323 28.8854 1.21863 28.9299 1.03062 28.9299C0.765188 28.9299 0.527407 28.8632 0.317274 28.73C0.107141 28.5968 0.0020752 28.3857 0.0020752 28.0969C0.0020752 27.9526 0.0352539 27.7805 0.101612 27.5806C0.167969 27.3917 0.261976 27.1696 0.383631 26.9141L6.23969 14.4532H5.36045C4.75218 14.4532 4.33744 14.3588 4.11625 14.17C3.89506 13.9812 3.78445 13.7591 3.78445 13.5037C3.78445 13.2371 3.92269 12.9817 4.1992 12.7373C4.47569 12.4819 4.87936 12.3542 5.41023 12.3542H7.36777C8.153 10.766 8.93823 9.45552 9.72346 8.42266C10.5198 7.3898 11.2994 6.57351 12.0626 5.97378C12.8257 5.37406 13.5667 4.95758 14.2856 4.72435C15.0155 4.49113 15.7122 4.37451 16.3758 4.37451C16.6855 4.37451 16.9786 4.4356 17.255 4.55777C17.5426 4.67993 17.7915 4.86318 18.0016 5.10751C18.2228 5.35185 18.3996 5.66281 18.5325 6.04043C18.6651 6.40692 18.7316 6.84006 18.7316 7.33981C18.7316 7.81738 18.6651 8.34492 18.5325 8.92243C18.4992 9.0779 18.4329 9.21118 18.3334 9.32224C18.2338 9.4222 18.1232 9.5055 18.0016 9.57213C17.88 9.63876 17.7582 9.68875 17.6365 9.72206C17.5149 9.74427 17.4099 9.75538 17.3214 9.75538C17.1003 9.75538 16.8956 9.70539 16.7076 9.60545C16.5196 9.49439 16.4256 9.3278 16.4256 9.10567C16.4256 8.96131 16.4311 8.82802 16.4422 8.70587C16.4643 8.58369 16.4753 8.46153 16.4753 8.33936C16.4753 7.8729 16.3869 7.53973 16.2099 7.33981C16.044 7.13992 15.8173 7.03995 15.5298 7.03995C15.1869 7.03995 14.7832 7.18988 14.3187 7.48974C13.8653 7.78962 13.4008 8.18943 12.9252 8.6892C12.4607 9.18897 12.0128 9.76094 11.5815 10.4051C11.1501 11.0381 10.7962 11.6878 10.5198 12.3542H14.3851C14.7279 12.3542 15.0486 12.3597 15.3473 12.3708C15.6459 12.3819 15.9058 12.4153 16.127 12.4708C16.3592 12.5263 16.5362 12.6207 16.6578 12.754C16.7905 12.8762 16.8569 13.0594 16.8569 13.3037C16.8569 13.4259 16.8348 13.5481 16.7905 13.6702C16.7463 13.7924 16.6689 13.909 16.5583 14.0201C16.4588 14.12 16.315 14.2089 16.127 14.2866C15.9389 14.3533 15.6956 14.3977 15.397 14.4199ZM16.3426 9.47217C16.3426 9.21673 16.3869 8.95574 16.4753 8.6892C16.5749 8.41155 16.7187 8.16167 16.9067 7.93955C17.0946 7.71743 17.3269 7.53418 17.6034 7.3898C17.891 7.24543 18.2282 7.17323 18.6154 7.17323C19.2568 7.17323 19.7048 7.30095 19.9591 7.55639C20.2136 7.80073 20.3406 8.11169 20.3406 8.48929C20.3406 8.70031 20.2965 8.93353 20.208 9.18897C20.1305 9.44441 20.0089 9.68318 19.8431 9.90531C19.6771 10.1163 19.4613 10.294 19.196 10.4384C18.9307 10.5828 18.6154 10.655 18.2505 10.655C17.5647 10.655 17.0836 10.5494 16.8071 10.3384C16.5306 10.1163 16.3758 9.82757 16.3426 9.47217ZM14.5178 13.2205C14.7058 12.9095 14.9215 12.6874 15.1648 12.5541C15.4081 12.4208 15.6569 12.3542 15.9113 12.3542C16.3316 12.3542 16.691 12.493 16.9897 12.7707C17.2993 13.0372 17.4541 13.3815 17.4541 13.8035C17.4431 13.9035 17.4264 14.0034 17.4043 14.1034C17.3933 14.2033 17.3602 14.3033 17.3048 14.4032C17.15 14.692 17.0228 14.9363 16.9233 15.1362C16.8237 15.3361 16.7297 15.5249 16.6412 15.7026C16.5638 15.8692 16.4864 16.0358 16.409 16.2024C16.3316 16.369 16.2376 16.5689 16.127 16.8021C15.9942 17.0798 15.8449 17.3852 15.6791 17.7184C15.5132 18.0404 15.3528 18.3736 15.198 18.718C15.0542 19.0622 14.927 19.4009 14.8164 19.7342C14.7169 20.0674 14.6671 20.3727 14.6671 20.6504C14.6671 20.9501 14.739 21.1501 14.8828 21.25C15.0376 21.3389 15.2533 21.3834 15.5298 21.3834C15.8394 21.3834 16.1601 21.3167 16.4919 21.1835C16.8348 21.0501 17.1775 20.878 17.5205 20.667C17.8633 20.456 18.2007 20.2173 18.5325 19.9507C18.8642 19.6731 19.1739 19.3954 19.4613 19.1177C19.76 18.8401 20.0309 18.5735 20.2744 18.3181C20.5287 18.0626 20.7388 17.835 20.9048 17.6351C21.126 17.4241 21.3471 17.3185 21.5683 17.3185C21.7674 17.3185 21.9278 17.4074 22.0494 17.5851C22.1821 17.7629 22.2485 17.9904 22.2485 18.2682C22.2485 18.5235 22.1821 18.7956 22.0494 19.0844C21.9278 19.3732 21.7231 19.6453 21.4356 19.9007C20.8715 20.4783 20.2965 21.0336 19.7102 21.5667C19.1241 22.0887 18.5214 22.555 17.9021 22.966C17.2937 23.3658 16.6799 23.6879 16.0606 23.9322C15.4413 24.1765 14.8164 24.2986 14.186 24.2986C13.2902 24.2986 12.5824 24.0711 12.0626 23.6158C11.5538 23.1492 11.2994 22.4273 11.2994 21.45C11.2994 20.9391 11.3713 20.4394 11.5151 19.9507C11.6589 19.4621 11.8303 18.9901 12.0294 18.5346C12.2285 18.0682 12.4386 17.624 12.6598 17.202C12.881 16.7688 13.069 16.3579 13.2238 15.9692C13.2791 15.8248 13.3731 15.6027 13.5058 15.3028C13.6496 15.003 13.7989 14.6976 13.9538 14.3866C14.1307 14.0201 14.3187 13.6314 14.5178 13.2205ZM22.9618 13.7702C23.183 13.2926 23.4595 12.9372 23.7913 12.704C24.1231 12.4708 24.4492 12.3542 24.77 12.3542C25.0355 12.3542 25.2733 12.4541 25.4834 12.654C25.6936 12.8429 25.7986 13.126 25.7986 13.5037C25.7986 13.648 25.7821 13.8035 25.7488 13.9701C25.7157 14.1367 25.6548 14.3144 25.5663 14.5032C25.8096 14.1922 26.158 13.8757 26.6114 13.5536C27.065 13.2205 27.5625 12.9261 28.1044 12.6707C28.6576 12.4042 29.2215 12.1876 29.7966 12.021C30.3828 11.8544 30.9358 11.7711 31.4556 11.7711C32.0416 11.7711 32.5283 11.9155 32.9155 12.2043C33.3135 12.4819 33.5126 12.9595 33.5126 13.6369C33.5126 14.0367 33.4518 14.4532 33.3301 14.8863C33.2085 15.3195 33.0482 15.7526 32.8491 16.1858C32.661 16.6189 32.4454 17.0465 32.202 17.4684C31.9698 17.8794 31.7376 18.2682 31.5053 18.6346C31.2731 19.0012 31.0574 19.3398 30.8583 19.6508C30.6704 19.9507 30.5211 20.2006 30.4105 20.4005C30.2666 20.5783 30.1948 20.7837 30.1948 21.0168C30.1948 21.1057 30.2224 21.1835 30.2777 21.25C30.333 21.3167 30.4215 21.35 30.5432 21.35C30.6206 21.35 30.709 21.3445 30.8085 21.3335C30.9081 21.3111 31.0297 21.25 31.1736 21.1501C31.7707 20.928 32.379 20.6504 32.9984 20.3173C33.6288 19.9839 34.2315 19.6342 34.8067 19.2676C35.3817 18.8901 35.907 18.5181 36.3826 18.1515C36.8692 17.774 37.273 17.4352 37.5937 17.1353C37.6822 17.0576 37.7705 17.0021 37.859 16.9687C37.9475 16.9354 38.0304 16.9188 38.1079 16.9188C38.2959 16.9188 38.4397 16.9909 38.5392 17.1353C38.6498 17.2798 38.7052 17.463 38.7052 17.6851C38.7052 18.0293 38.5946 18.4125 38.3734 18.8345C38.1633 19.2565 37.8259 19.6508 37.3615 20.0174C36.7311 20.4727 36.1504 20.8891 35.6196 21.2668C35.0997 21.6444 34.5633 21.9998 34.0103 22.3329C33.4684 22.655 32.8822 22.9604 32.2518 23.2492C31.6326 23.5269 30.9026 23.7879 30.0621 24.0322C29.7745 24.121 29.5091 24.1876 29.2657 24.2321C29.0335 24.2764 28.8179 24.2986 28.6188 24.2986C28.0326 24.2986 27.6013 24.1376 27.3249 23.8155C27.0594 23.4824 26.9267 23.0214 26.9267 22.4329C26.9267 22.3551 26.9267 22.283 26.9267 22.2163C26.9377 22.1386 26.9488 22.0552 26.9598 21.9665C26.9819 21.6221 27.0704 21.2446 27.2253 20.8336C27.3911 20.4227 27.5848 20.0007 27.806 19.5675C28.0382 19.1344 28.2815 18.7067 28.5358 18.2849C28.7902 17.8516 29.0224 17.4463 29.2326 17.0688C29.4538 16.68 29.6362 16.3357 29.7801 16.0358C29.9238 15.736 29.9957 15.4916 29.9957 15.3028C29.9957 15.1362 29.9459 14.9974 29.8463 14.8863C29.7578 14.7642 29.6197 14.7031 29.4317 14.7031C28.7238 14.7031 28.0492 14.9141 27.4078 15.3361C26.7774 15.7582 26.1857 16.2802 25.6328 16.9021C25.0796 17.513 24.571 18.1626 24.1064 18.8512C23.642 19.5397 23.2328 20.1562 22.8789 20.7004C22.6577 21.0668 22.453 21.4611 22.265 21.8831C22.0881 22.294 21.9001 22.6828 21.701 23.0492C21.5019 23.4047 21.2753 23.699 21.0208 23.9322C20.7775 24.1765 20.4679 24.2986 20.0918 24.2986C19.7048 24.2986 19.4005 24.1765 19.1794 23.9322C18.9582 23.6879 18.8476 23.388 18.8476 23.0327C18.8476 22.8438 18.9251 22.5383 19.0798 22.1163C19.2347 21.6943 19.4338 21.2057 19.6771 20.6504C19.9204 20.095 20.1913 19.5008 20.4899 18.8678C20.7996 18.2236 21.1037 17.5906 21.4023 16.9687C21.712 16.3357 22.0051 15.7415 22.2816 15.1862C22.5582 14.6309 22.7848 14.1589 22.9618 13.7702ZM42.9521 14.0534C42.8967 14.0423 42.8469 14.0367 42.8027 14.0367C42.7584 14.0367 42.7086 14.0367 42.6534 14.0367C42.2331 14.0367 41.8406 14.12 41.4755 14.2866C41.1106 14.4532 40.7732 14.6753 40.4636 14.953C40.1651 15.2195 39.894 15.5249 39.6507 15.8692C39.4185 16.2135 39.2083 16.5578 39.0203 16.9021C38.8322 17.2352 38.6719 17.5573 38.5392 17.8683C38.4176 18.1793 38.3236 18.4403 38.2572 18.6513C38.6444 18.4514 39.0424 18.2236 39.4516 17.9683C39.8719 17.7129 40.2645 17.4684 40.6295 17.2352C40.9944 17.0021 41.3097 16.791 41.5751 16.6022C41.8516 16.4134 42.0451 16.2857 42.1557 16.2191C42.6534 15.9081 42.9962 15.6193 43.1843 15.3528C43.3723 15.0752 43.4663 14.8364 43.4663 14.6365C43.4663 14.4699 43.4111 14.3366 43.3005 14.2366C43.2009 14.1367 43.0847 14.0756 42.9521 14.0534ZM43.5492 11.7544C44.4672 11.7544 45.1528 11.9766 45.6064 12.4208C46.0598 12.8651 46.2865 13.4814 46.2865 14.27C46.2865 14.7364 46.1649 15.2251 45.9215 15.736C45.6782 16.2468 45.2579 16.7688 44.6607 17.3019C44.0636 17.8239 43.2617 18.3625 42.2552 18.9178C41.2599 19.4621 40.0102 20.0117 38.5061 20.567C38.5613 20.8891 38.7329 21.1446 39.0203 21.3335C39.3079 21.511 39.6894 21.5999 40.1651 21.5999C40.6737 21.5999 41.2156 21.5278 41.7908 21.3834C42.3769 21.2279 42.9521 21.0336 43.516 20.8004C44.0911 20.567 44.6496 20.3173 45.1915 20.0506C45.7334 19.7729 46.2201 19.5121 46.6514 19.2676C47.0938 19.0234 47.4589 18.8123 47.7463 18.6346C48.0449 18.457 48.244 18.3459 48.3436 18.3014C48.4431 18.2349 48.5316 18.196 48.6091 18.1849C48.6974 18.1737 48.7749 18.1682 48.8413 18.1682C48.974 18.1682 49.0846 18.2015 49.1731 18.2682C49.2616 18.3236 49.3334 18.3959 49.3886 18.4846C49.4551 18.5624 49.4992 18.6513 49.5215 18.7513C49.5436 18.8401 49.5546 18.9178 49.5546 18.9845C49.5546 19.0844 49.5436 19.2066 49.5215 19.3511C49.4992 19.4843 49.4163 19.6397 49.2726 19.8174C49.2172 19.8729 49.0292 20.0228 48.7085 20.2673C48.3989 20.5116 47.9951 20.8004 47.4976 21.1335C46.9998 21.4667 46.4192 21.822 45.7557 22.1997C45.1032 22.5661 44.4064 22.9049 43.6654 23.2159C42.9354 23.5269 42.1723 23.7823 41.376 23.9822C40.5798 24.1932 39.7946 24.2986 39.0203 24.2986C38.3568 24.2986 37.7651 24.171 37.2453 23.9155C36.7365 23.6601 36.2997 23.3159 35.9347 22.8827C35.5808 22.4496 35.3099 21.9498 35.1218 21.3834C34.9338 20.8169 34.8398 20.2228 34.8398 19.6008C34.8398 19.1233 34.9338 18.6013 35.1218 18.035C35.3099 17.4574 35.5808 16.8799 35.9347 16.3024C36.2885 15.7249 36.72 15.164 37.2286 14.6198C37.7484 14.0645 38.3291 13.5758 38.9705 13.1538C39.612 12.7318 40.3142 12.393 41.0775 12.1376C41.8516 11.8822 42.6755 11.7544 43.5492 11.7544Z" fill="#FFD31D"/>
</svg>
